solid OpenSCAD_Model
  facet normal -1 0 0
    outer loop
      vertex -11 18.5 -2.25
      vertex -11 -16 0.7
      vertex -11 18.5 2.25
    endloop
  endfacet
  facet normal -1 0 0
    outer loop
      vertex -11 -18.5 -2.25
      vertex -11 -16 0.7
      vertex -11 18.5 -2.25
    endloop
  endfacet
  facet normal -1 -0 0
    outer loop
      vertex -11 -16 0.7
      vertex -11 -18.5 -2.25
      vertex -11 -18 0.7
    endloop
  endfacet
  facet normal -1 0 0
    outer loop
      vertex -11 -18.5 2.25
      vertex -11 -18 0.7
      vertex -11 -18.5 -2.25
    endloop
  endfacet
  facet normal -1 0 0
    outer loop
      vertex -11 -18 0.7
      vertex -11 -18.5 2.25
      vertex -11 -18 2.25
    endloop
  endfacet
  facet normal -1 -0 0
    outer loop
      vertex -11 18.5 2.25
      vertex -11 -16 0.7
      vertex -11 -16 2.25
    endloop
  endfacet
  facet normal -0 0 1
    outer loop
      vertex -11 -18 2.25
      vertex 11 -18.5 2.25
      vertex 11 -18 2.25
    endloop
  endfacet
  facet normal 0 0 1
    outer loop
      vertex 11 -18.5 2.25
      vertex -11 -18 2.25
      vertex -11 -18.5 2.25
    endloop
  endfacet
  facet normal 0 0 1
    outer loop
      vertex 11 18.5 2.25
      vertex 9.1 16.6 2.25
      vertex 11 -16 2.25
    endloop
  endfacet
  facet normal -0 0 1
    outer loop
      vertex 4 18.5 2.25
      vertex 9.1 16.6 2.25
      vertex 11 18.5 2.25
    endloop
  endfacet
  facet normal 0 0 1
    outer loop
      vertex 9.1 16.6 2.25
      vertex 4 18.5 2.25
      vertex 4 16.6 2.25
    endloop
  endfacet
  facet normal 0 0 1
    outer loop
      vertex 11 -16 2.25
      vertex 9.1 16.6 2.25
      vertex 9.1 -16 2.25
    endloop
  endfacet
  facet normal 0 0 1
    outer loop
      vertex -4 18.5 2.25
      vertex -9.1 16.6 2.25
      vertex -4 16.6 2.25
    endloop
  endfacet
  facet normal -0 0 1
    outer loop
      vertex -11 18.5 2.25
      vertex -9.1 16.6 2.25
      vertex -4 18.5 2.25
    endloop
  endfacet
  facet normal 0 0 1
    outer loop
      vertex -11 -16 2.25
      vertex -9.1 16.6 2.25
      vertex -11 18.5 2.25
    endloop
  endfacet
  facet normal 0 0 1
    outer loop
      vertex -9.1 16.6 2.25
      vertex -11 -16 2.25
      vertex -9.1 -16 2.25
    endloop
  endfacet
  facet normal 1 0 0
    outer loop
      vertex 11 -18 2.25
      vertex 11 -18.5 2.25
      vertex 11 -18 0.7
    endloop
  endfacet
  facet normal 1 0 0
    outer loop
      vertex 11 -16 0.7
      vertex 11 18.5 2.25
      vertex 11 -16 2.25
    endloop
  endfacet
  facet normal 1 0 0
    outer loop
      vertex 11 18.5 2.25
      vertex 11 -16 0.7
      vertex 11 18.5 -2.25
    endloop
  endfacet
  facet normal 1 0 0
    outer loop
      vertex 11 -18.5 -2.25
      vertex 11 -16 0.7
      vertex 11 -18 0.7
    endloop
  endfacet
  facet normal 1 0 0
    outer loop
      vertex 11 -16 0.7
      vertex 11 -18.5 -2.25
      vertex 11 18.5 -2.25
    endloop
  endfacet
  facet normal 1 0 0
    outer loop
      vertex 11 -18.5 -2.25
      vertex 11 -18 0.7
      vertex 11 -18.5 2.25
    endloop
  endfacet
  facet normal 0 1 0
    outer loop
      vertex 11 18.5 2.25
      vertex 4 18.5 0.2
      vertex 4 18.5 2.25
    endloop
  endfacet
  facet normal 0 1 0
    outer loop
      vertex 4 18.5 0.2
      vertex 11 18.5 -2.25
      vertex -4 18.5 0.2
    endloop
  endfacet
  facet normal 0 1 -0
    outer loop
      vertex 11 18.5 -2.25
      vertex 4 18.5 0.2
      vertex 11 18.5 2.25
    endloop
  endfacet
  facet normal 0 1 -0
    outer loop
      vertex -4 18.5 0.2
      vertex -11 18.5 2.25
      vertex -4 18.5 2.25
    endloop
  endfacet
  facet normal 0 1 0
    outer loop
      vertex -4 18.5 0.2
      vertex -11 18.5 -2.25
      vertex -11 18.5 2.25
    endloop
  endfacet
  facet normal 0 1 0
    outer loop
      vertex -11 18.5 -2.25
      vertex -4 18.5 0.2
      vertex 11 18.5 -2.25
    endloop
  endfacet
  facet normal 0 0 -1
    outer loop
      vertex 11 -18.5 -2.25
      vertex 9.1 -16.6 -2.25
      vertex 11 18.5 -2.25
    endloop
  endfacet
  facet normal 0 0 -1
    outer loop
      vertex 11 -18.5 -2.25
      vertex 5 -16.6 -2.25
      vertex 9.1 -16.6 -2.25
    endloop
  endfacet
  facet normal 0 0 -1
    outer loop
      vertex 5 -16.6 -2.25
      vertex -5 -16.6 -2.25
      vertex 5 16.6 -2.25
    endloop
  endfacet
  facet normal 0 0 -1
    outer loop
      vertex 11 -18.5 -2.25
      vertex -5 -16.6 -2.25
      vertex 5 -16.6 -2.25
    endloop
  endfacet
  facet normal 0 0 -1
    outer loop
      vertex -11 -18.5 -2.25
      vertex -5 -16.6 -2.25
      vertex 11 -18.5 -2.25
    endloop
  endfacet
  facet normal -0 0 -1
    outer loop
      vertex -9.1 -16.6 -2.25
      vertex -11 -18.5 -2.25
      vertex -9.1 16.6 -2.25
    endloop
  endfacet
  facet normal -0 0 -1
    outer loop
      vertex -5 -16.6 -2.25
      vertex -11 -18.5 -2.25
      vertex -9.1 -16.6 -2.25
    endloop
  endfacet
  facet normal 0 0 -1
    outer loop
      vertex 9.1 16.6 -2.25
      vertex 11 18.5 -2.25
      vertex 9.1 -16.6 -2.25
    endloop
  endfacet
  facet normal 0 0 -1
    outer loop
      vertex 5 16.6 -2.25
      vertex 11 18.5 -2.25
      vertex 9.1 16.6 -2.25
    endloop
  endfacet
  facet normal 0 0 -1
    outer loop
      vertex -5 16.6 -2.25
      vertex 5 16.6 -2.25
      vertex -5 -16.6 -2.25
    endloop
  endfacet
  facet normal 0 0 -1
    outer loop
      vertex -5 16.6 -2.25
      vertex 11 18.5 -2.25
      vertex 5 16.6 -2.25
    endloop
  endfacet
  facet normal 0 0 -1
    outer loop
      vertex -11 18.5 -2.25
      vertex -5 16.6 -2.25
      vertex -9.1 16.6 -2.25
    endloop
  endfacet
  facet normal 0 0 -1
    outer loop
      vertex -5 16.6 -2.25
      vertex -11 18.5 -2.25
      vertex 11 18.5 -2.25
    endloop
  endfacet
  facet normal 0 0 -1
    outer loop
      vertex -11 18.5 -2.25
      vertex -9.1 16.6 -2.25
      vertex -11 -18.5 -2.25
    endloop
  endfacet
  facet normal 0 -1 0
    outer loop
      vertex -11 -18.5 -2.25
      vertex 11 -18.5 2.25
      vertex -11 -18.5 2.25
    endloop
  endfacet
  facet normal 0 -1 -0
    outer loop
      vertex 11 -18.5 2.25
      vertex -11 -18.5 -2.25
      vertex 11 -18.5 -2.25
    endloop
  endfacet
  facet normal 1 0 0
    outer loop
      vertex -9.1 -16 0.7
      vertex -9.1 16.6 2.25
      vertex -9.1 -16 2.25
    endloop
  endfacet
  facet normal 1 0 0
    outer loop
      vertex -9.1 16.6 2.25
      vertex -9.1 -16 0.7
      vertex -9.1 16.6 -2.25
    endloop
  endfacet
  facet normal 1 0 0
    outer loop
      vertex -9.1 -16.6 -2.25
      vertex -9.1 -16 0.7
      vertex -9.1 -16.6 0.7
    endloop
  endfacet
  facet normal 1 0 0
    outer loop
      vertex -9.1 -16 0.7
      vertex -9.1 -16.6 -2.25
      vertex -9.1 16.6 -2.25
    endloop
  endfacet
  facet normal -1 0 0
    outer loop
      vertex 9.1 16.6 -2.25
      vertex 9.1 -16 0.7
      vertex 9.1 16.6 2.25
    endloop
  endfacet
  facet normal -1 0 0
    outer loop
      vertex 9.1 -16.6 -2.25
      vertex 9.1 -16 0.7
      vertex 9.1 16.6 -2.25
    endloop
  endfacet
  facet normal -1 -0 0
    outer loop
      vertex 9.1 -16 0.7
      vertex 9.1 -16.6 -2.25
      vertex 9.1 -16.6 0.7
    endloop
  endfacet
  facet normal -1 -0 0
    outer loop
      vertex 9.1 16.6 2.25
      vertex 9.1 -16 0.7
      vertex 9.1 -16 2.25
    endloop
  endfacet
  facet normal 0 1 0
    outer loop
      vertex 9.1 -16.6 0.7
      vertex 5 -16.6 -0.95
      vertex -9.1 -16.6 0.7
    endloop
  endfacet
  facet normal 0 1 -0
    outer loop
      vertex 9.1 -16.6 -2.25
      vertex 5 -16.6 -0.95
      vertex 9.1 -16.6 0.7
    endloop
  endfacet
  facet normal 0 1 0
    outer loop
      vertex 5 -16.6 -0.95
      vertex 9.1 -16.6 -2.25
      vertex 5 -16.6 -2.25
    endloop
  endfacet
  facet normal 0 1 -0
    outer loop
      vertex -5 -16.6 -0.95
      vertex -9.1 -16.6 0.7
      vertex 5 -16.6 -0.95
    endloop
  endfacet
  facet normal 0 1 0
    outer loop
      vertex -9.1 -16.6 -2.25
      vertex -5 -16.6 -0.95
      vertex -5 -16.6 -2.25
    endloop
  endfacet
  facet normal 0 1 0
    outer loop
      vertex -5 -16.6 -0.95
      vertex -9.1 -16.6 -2.25
      vertex -9.1 -16.6 0.7
    endloop
  endfacet
  facet normal 0 -1 0
    outer loop
      vertex -5 16.6 -0.95
      vertex -4 16.6 2.25
      vertex -9.1 16.6 2.25
    endloop
  endfacet
  facet normal 0 -1 -0
    outer loop
      vertex -4 16.6 0.2
      vertex -5 16.6 -0.95
      vertex 4 16.6 0.2
    endloop
  endfacet
  facet normal 0 -1 -0
    outer loop
      vertex -4 16.6 2.25
      vertex -5 16.6 -0.95
      vertex -4 16.6 0.2
    endloop
  endfacet
  facet normal 0 -1 0
    outer loop
      vertex -9.1 16.6 -2.25
      vertex -5 16.6 -0.95
      vertex -9.1 16.6 2.25
    endloop
  endfacet
  facet normal 0 -1 -0
    outer loop
      vertex -5 16.6 -0.95
      vertex -9.1 16.6 -2.25
      vertex -5 16.6 -2.25
    endloop
  endfacet
  facet normal 0 -1 0
    outer loop
      vertex 5 16.6 -0.95
      vertex 4 16.6 2.25
      vertex 4 16.6 0.2
    endloop
  endfacet
  facet normal 0 -1 0
    outer loop
      vertex 5 16.6 -0.95
      vertex 4 16.6 0.2
      vertex -5 16.6 -0.95
    endloop
  endfacet
  facet normal 0 -1 0
    outer loop
      vertex 4 16.6 2.25
      vertex 5 16.6 -0.95
      vertex 9.1 16.6 2.25
    endloop
  endfacet
  facet normal 0 -1 0
    outer loop
      vertex 9.1 16.6 -2.25
      vertex 5 16.6 -0.95
      vertex 5 16.6 -2.25
    endloop
  endfacet
  facet normal 0 -1 0
    outer loop
      vertex 5 16.6 -0.95
      vertex 9.1 16.6 -2.25
      vertex 9.1 16.6 2.25
    endloop
  endfacet
  facet normal 1 -0 0
    outer loop
      vertex -4 16.6 2.25
      vertex -4 18.5 0.2
      vertex -4 18.5 2.25
    endloop
  endfacet
  facet normal 1 0 0
    outer loop
      vertex -4 18.5 0.2
      vertex -4 16.6 2.25
      vertex -4 16.6 0.2
    endloop
  endfacet
  facet normal -1 0 0
    outer loop
      vertex 4 16.6 0.2
      vertex 4 18.5 2.25
      vertex 4 18.5 0.2
    endloop
  endfacet
  facet normal -1 -0 0
    outer loop
      vertex 4 18.5 2.25
      vertex 4 16.6 0.2
      vertex 4 16.6 2.25
    endloop
  endfacet
  facet normal -0 0 1
    outer loop
      vertex -4 18.5 0.2
      vertex 4 16.6 0.2
      vertex 4 18.5 0.2
    endloop
  endfacet
  facet normal 0 0 1
    outer loop
      vertex 4 16.6 0.2
      vertex -4 18.5 0.2
      vertex -4 16.6 0.2
    endloop
  endfacet
  facet normal 0 -1 0
    outer loop
      vertex -11 -16 0.7
      vertex -9.1 -16 2.25
      vertex -11 -16 2.25
    endloop
  endfacet
  facet normal 0 -1 -0
    outer loop
      vertex -9.1 -16 2.25
      vertex -11 -16 0.7
      vertex -9.1 -16 0.7
    endloop
  endfacet
  facet normal 0 -1 0
    outer loop
      vertex 9.1 -16 0.7
      vertex 11 -16 2.25
      vertex 9.1 -16 2.25
    endloop
  endfacet
  facet normal 0 -1 -0
    outer loop
      vertex 11 -16 2.25
      vertex 9.1 -16 0.7
      vertex 11 -16 0.7
    endloop
  endfacet
  facet normal 0 0 1
    outer loop
      vertex -9.1 -16 0.7
      vertex -11 -16 0.7
      vertex -9.1 -16.6 0.7
    endloop
  endfacet
  facet normal 0 0 1
    outer loop
      vertex 9.1 -16.6 0.7
      vertex 11 -16 0.7
      vertex 9.1 -16 0.7
    endloop
  endfacet
  facet normal 0 0 1
    outer loop
      vertex 11 -16 0.7
      vertex 9.1 -16.6 0.7
      vertex 11 -18 0.7
    endloop
  endfacet
  facet normal -0 0 1
    outer loop
      vertex -9.1 -16.6 0.7
      vertex 11 -18 0.7
      vertex 9.1 -16.6 0.7
    endloop
  endfacet
  facet normal 0 0 1
    outer loop
      vertex -9.1 -16.6 0.7
      vertex -11 -18 0.7
      vertex 11 -18 0.7
    endloop
  endfacet
  facet normal 0 0 1
    outer loop
      vertex -11 -18 0.7
      vertex -9.1 -16.6 0.7
      vertex -11 -16 0.7
    endloop
  endfacet
  facet normal 0 1 -0
    outer loop
      vertex 11 -18 0.7
      vertex -11 -18 2.25
      vertex 11 -18 2.25
    endloop
  endfacet
  facet normal 0 1 0
    outer loop
      vertex -11 -18 2.25
      vertex 11 -18 0.7
      vertex -11 -18 0.7
    endloop
  endfacet
  facet normal -1 0 0
    outer loop
      vertex -5 -16.6 -2.25
      vertex -5 16.6 -0.95
      vertex -5 16.6 -2.25
    endloop
  endfacet
  facet normal -1 -0 0
    outer loop
      vertex -5 16.6 -0.95
      vertex -5 -16.6 -2.25
      vertex -5 -16.6 -0.95
    endloop
  endfacet
  facet normal -0 0 1
    outer loop
      vertex -5 16.6 -0.95
      vertex 5 -16.6 -0.95
      vertex 5 16.6 -0.95
    endloop
  endfacet
  facet normal 0 0 1
    outer loop
      vertex 5 -16.6 -0.95
      vertex -5 16.6 -0.95
      vertex -5 -16.6 -0.95
    endloop
  endfacet
  facet normal 1 -0 0
    outer loop
      vertex 5 -16.6 -0.95
      vertex 5 16.6 -2.25
      vertex 5 16.6 -0.95
    endloop
  endfacet
  facet normal 1 0 0
    outer loop
      vertex 5 16.6 -2.25
      vertex 5 -16.6 -0.95
      vertex 5 -16.6 -2.25
    endloop
  endfacet
endsolid OpenSCAD_Model
